<svg xmlns="http://www.w3.org/2000/svg" version="1.1" xmlns:xlink="http://www.w3.org/1999/xlink" xmlns:svgjs="http://svgjs.dev/svgjs" width="1000" height="664" viewBox="0 0 1000 664"><g transform="matrix(1,0,0,1,0.1066666666666265,0.47999999999996135)"><svg viewBox="0 0 375 249" data-background-color="#050505" preserveAspectRatio="xMidYMid meet" height="664" width="1000" xmlns="http://www.w3.org/2000/svg" xmlns:xlink="http://www.w3.org/1999/xlink"><g id="tight-bounds" transform="matrix(1,0,0,1,-0.03976036071776434,-0.1797729492187159)"><svg viewBox="0 0 375.07952880859375 249.35955810546875" height="249.35955810546875" width="375.07952880859375"><g><svg></svg></g><g><svg viewBox="0 0 375.07952880859375 249.35955810546875" height="249.35955810546875" width="375.07952880859375"><g transform="matrix(1,0,0,1,-10.220239639282227,1.07977294921875)"><path xmlns="http://www.w3.org/2000/svg" d="M10.22 248.28v-249.36h375.08v249.36zM377.333 240.313v-233.426h-359.146v233.426zM356.573 247.2v-5.949h-241.347v5.949z" fill="#fe032f" fill-rule="nonzero" stroke="none" stroke-width="1" stroke-linecap="butt" stroke-linejoin="miter" stroke-miterlimit="10" stroke-dasharray="" stroke-dashoffset="0" font-family="none" font-weight="none" font-size="none" text-anchor="none" style="mix-blend-mode: normal" data-fill-palette-color="tertiary"></path><g><path xmlns="http://www.w3.org/2000/svg" d="M145.94 246.843h0.963v0.357h-1.852l-0.582-1.321h-2.908l-0.581 1.321h-1.853v-0.357h0.964l2.401-5.45h1.047zM141.96 244.973h2.11l-1.055-2.392zM150.293 246.843h1.038v0.357h-5.234v-0.357h1.064c-0.266-0.138-0.51-0.31-0.731-0.515v0l0.615-0.74c0.587 0.51 1.196 0.764 1.827 0.765v0c0.316 0 0.567-0.068 0.753-0.205 0.185-0.135 0.277-0.315 0.277-0.54 0-0.224-0.087-0.398-0.26-0.523-0.175-0.124-0.476-0.238-0.903-0.341-0.426-0.102-0.75-0.196-0.972-0.282-0.222-0.085-0.418-0.197-0.59-0.336v0c-0.343-0.26-0.515-0.659-0.515-1.196 0-0.537 0.196-0.952 0.587-1.243 0.39-0.29 0.873-0.435 1.449-0.436v0c0.371 0 0.739 0.061 1.105 0.183 0.366 0.122 0.681 0.294 0.947 0.515v0l-0.524 0.74c-0.172-0.155-0.404-0.282-0.697-0.382-0.294-0.1-0.583-0.15-0.868-0.15-0.286 0-0.52 0.058-0.703 0.174-0.183 0.116-0.274 0.292-0.274 0.527 0 0.236 0.091 0.416 0.274 0.54 0.183 0.125 0.572 0.26 1.169 0.404 0.595 0.144 1.044 0.346 1.345 0.606 0.301 0.26 0.452 0.626 0.452 1.097v0c0 0.57-0.21 1.016-0.631 1.338zM151.331 246.843h2.277v0.357h-2.277zM155.394 246.843h3.232v0.357h-5.018v-0.357h0.806v-5.45h3.871l-0.008 0.914h-2.883v1.595h2.576v0.905h-2.576zM164.076 246.843h0.806v0.357h-1.795l-1.387-1.952h-1.288v1.952h-1.786v-0.357h0.806v-5.45h2.16c0.886 0 1.52 0.15 1.902 0.448 0.382 0.299 0.573 0.778 0.574 1.438v0c0 0.958-0.418 1.562-1.255 1.811v0zM161.634 244.359c0.554 0 0.931-0.086 1.129-0.258 0.199-0.172 0.299-0.448 0.3-0.827 0-0.379-0.102-0.639-0.308-0.781-0.205-0.141-0.57-0.211-1.097-0.211v0h-1.246v2.077zM164.674 246.843h0.806v-5.45h4.079v0.922h-3.098v1.537h2.783v0.872h-2.783v1.554h3.198v0.565h0.806v0.357h-5.791zM170.108 246.843h0.806v-5.45h4.079v0.922h-3.099v1.537h2.783v0.872h-2.783v1.554h3.199v0.565h0.805v0.357h-5.79zM175.541 246.843h2.277v0.357h-2.277zM183.824 246.843h0.964v0.357h-1.853l-0.581-1.321h-2.908l-0.582 1.321h-1.852v-0.357h0.964l2.401-5.45h1.046zM179.845 244.973h2.11l-1.055-2.392zM188.178 246.843h1.038v0.357h-5.234v-0.357h1.064c-0.266-0.138-0.51-0.31-0.731-0.515v0l0.614-0.74c0.587 0.51 1.196 0.764 1.828 0.765v0c0.316 0 0.567-0.068 0.753-0.205 0.185-0.135 0.277-0.315 0.277-0.54 0-0.224-0.087-0.398-0.261-0.523-0.175-0.124-0.476-0.238-0.902-0.341-0.426-0.102-0.75-0.196-0.972-0.282-0.222-0.085-0.418-0.197-0.59-0.336v0c-0.343-0.26-0.515-0.659-0.515-1.196 0-0.537 0.196-0.952 0.587-1.243 0.39-0.29 0.873-0.435 1.449-0.436v0c0.371 0 0.739 0.061 1.105 0.183 0.366 0.122 0.681 0.294 0.947 0.515v0l-0.524 0.74c-0.172-0.155-0.404-0.282-0.698-0.382-0.294-0.1-0.583-0.15-0.867-0.15-0.286 0-0.52 0.058-0.703 0.174-0.183 0.116-0.274 0.292-0.274 0.527 0 0.236 0.091 0.416 0.274 0.54 0.183 0.125 0.572 0.26 1.168 0.404 0.595 0.144 1.044 0.346 1.346 0.606 0.301 0.26 0.452 0.626 0.452 1.097v0c0 0.57-0.21 1.016-0.631 1.338zM189.216 246.843h2.277v0.357h-2.277zM198.197 246.843h2.003v0.357h-3.099l-1.222-3.98h-0.066l-1.221 3.98h-3.099v-0.357h2.002l-1.903-5.45h1.056l1.462 4.179 1.296-4.179h0.881l1.296 4.179 1.462-4.179h1.055zM200.2 246.843h0.806v-5.45h4.079v0.922h-3.099v1.537h2.783v0.872h-2.783v1.554h3.198v0.565h0.806v0.357h-5.79zM210.07 246.843h0.806v0.357h-5.243v-0.357h0.806v-5.45h0.98v4.876h2.651zM214.772 246.843h0.806v0.357h-5.243v-0.357h0.806v-5.45h0.981v4.876h2.65zM215.038 246.843h2.276v0.357h-2.276zM219.101 246.843h3.231v0.357h-5.018v-0.357h0.806v-5.45h3.872l-0.009 0.914h-2.882v1.595h2.575v0.905h-2.575zM227.409 246.843h1.902v0.357h-6.979v-0.357h1.903c-0.454-0.26-0.813-0.618-1.075-1.072-0.264-0.454-0.395-0.961-0.396-1.52v0c0-0.853 0.294-1.566 0.881-2.141 0.587-0.573 1.313-0.859 2.177-0.859 0.864 0 1.59 0.286 2.176 0.859 0.587 0.574 0.881 1.287 0.881 2.141v0c0 0.554-0.131 1.061-0.394 1.52-0.264 0.46-0.623 0.817-1.076 1.072zM227.281 242.763c-0.397-0.41-0.883-0.615-1.459-0.614-0.576 0-1.062 0.205-1.457 0.614-0.397 0.41-0.595 0.907-0.595 1.491 0 0.585 0.198 1.082 0.595 1.492 0.395 0.41 0.881 0.615 1.457 0.615 0.576 0 1.062-0.205 1.459-0.615 0.395-0.41 0.593-0.907 0.593-1.492 0-0.584-0.198-1.081-0.593-1.491zM234.761 246.843h0.806v0.357h-1.794l-1.388-1.952h-1.288v1.952h-1.786v-0.357h0.806v-5.45h2.16c0.886 0 1.52 0.15 1.903 0.448 0.382 0.299 0.573 0.778 0.573 1.438v0c0 0.958-0.418 1.562-1.255 1.811v0zM232.319 244.359c0.554 0 0.931-0.086 1.13-0.258 0.199-0.172 0.299-0.448 0.299-0.827 0-0.379-0.102-0.639-0.308-0.781-0.205-0.141-0.57-0.211-1.096-0.211v0h-1.247v2.077zM235.359 246.843h2.277v0.357h-2.277zM237.636 246.843h2.093v-1.936l-2.16-3.514h1.072l1.587 2.642 1.587-2.642h1.072l-2.161 3.514v1.936h2.094v0.357h-5.184zM247.896 246.843h1.903v0.357h-6.979v-0.357h1.903c-0.454-0.26-0.813-0.618-1.075-1.072-0.264-0.454-0.395-0.961-0.396-1.52v0c0-0.853 0.294-1.566 0.881-2.141 0.587-0.573 1.313-0.859 2.176-0.859 0.864 0 1.59 0.286 2.177 0.859 0.587 0.574 0.881 1.287 0.881 2.141v0c0 0.554-0.131 1.061-0.394 1.52-0.264 0.46-0.623 0.817-1.077 1.072zM247.768 242.763c-0.397-0.41-0.883-0.615-1.459-0.614-0.576 0-1.062 0.205-1.457 0.614-0.397 0.41-0.595 0.907-0.595 1.491 0 0.585 0.198 1.082 0.595 1.492 0.395 0.41 0.881 0.615 1.457 0.615 0.576 0 1.062-0.205 1.459-0.615 0.395-0.41 0.593-0.907 0.594-1.492 0-0.584-0.198-1.081-0.594-1.491zM254.451 246.843h1.728v0.357h-6.38v-0.357h1.72c-0.659-0.46-0.989-1.188-0.989-2.185v0-3.265h0.98v3.223c0 0.532 0.133 0.953 0.399 1.263 0.266 0.31 0.626 0.465 1.08 0.465 0.454 0 0.814-0.155 1.08-0.465 0.266-0.31 0.399-0.731 0.399-1.263v0-3.223h0.98v3.265c0 1.003-0.332 1.731-0.997 2.185zM261.63 246.843h0.805v0.357h-1.794l-1.388-1.952h-1.287v1.952h-1.787v-0.357h0.806v-5.45h2.16c0.886 0 1.52 0.15 1.903 0.448 0.382 0.299 0.573 0.778 0.573 1.438v0c0 0.958-0.418 1.562-1.254 1.811v0zM259.187 244.359c0.554 0 0.931-0.086 1.13-0.258 0.199-0.172 0.299-0.448 0.299-0.827 0-0.379-0.102-0.639-0.307-0.781-0.205-0.141-0.57-0.211-1.097-0.211v0h-1.246v2.077zM262.228 246.843h2.276v0.357h-2.276zM269.531 246.843h1.088v0.357h-6.115v-0.357h1.845c-0.438-0.26-0.782-0.615-1.034-1.064-0.253-0.449-0.379-0.955-0.379-1.52v0c0-0.853 0.295-1.567 0.886-2.144 0.589-0.576 1.334-0.864 2.235-0.864 0.899 0 1.651 0.332 2.255 0.997v0l-0.624 0.682c-0.277-0.266-0.538-0.451-0.784-0.557-0.247-0.105-0.537-0.158-0.869-0.158v0c-0.587 0-1.08 0.189-1.479 0.568-0.399 0.38-0.598 0.865-0.598 1.456 0 0.589 0.198 1.082 0.595 1.477 0.395 0.397 0.865 0.595 1.407 0.595v0c0.338 0 0.629-0.057 0.873-0.171 0.244-0.113 0.498-0.294 0.764-0.543v0l0.631 0.648c-0.244 0.266-0.476 0.465-0.697 0.598zM275.695 246.843h1.903v0.357h-6.979v-0.357h1.902c-0.454-0.26-0.813-0.618-1.075-1.072-0.264-0.454-0.395-0.961-0.395-1.52v0c0-0.853 0.294-1.566 0.881-2.141 0.587-0.573 1.313-0.859 2.176-0.859 0.864 0 1.59 0.286 2.177 0.859 0.587 0.574 0.881 1.287 0.881 2.141v0c0 0.554-0.131 1.061-0.394 1.52-0.264 0.46-0.623 0.817-1.077 1.072zM275.567 242.763c-0.397-0.41-0.883-0.615-1.459-0.614-0.576 0-1.062 0.205-1.457 0.614-0.397 0.41-0.595 0.907-0.595 1.491 0 0.585 0.198 1.082 0.595 1.492 0.395 0.41 0.881 0.615 1.457 0.615 0.576 0 1.062-0.205 1.459-0.615 0.395-0.41 0.593-0.907 0.593-1.492 0-0.584-0.198-1.081-0.593-1.491zM284.959 246.843h0.806v0.357h-1.787v-4.536l-2.027 4.029h-0.548l-2.019-4.029v4.536h-1.786v-0.357h0.806v-5.45h1.528l1.753 3.647 1.753-3.647h1.521zM287.551 246.843h3.232v0.357h-5.018v-0.357h0.805v-5.45h3.872l-0.008 0.914h-2.883v1.595h2.575v0.905h-2.575zM295.859 246.843h1.902v0.357h-6.978v-0.357h1.902c-0.454-0.26-0.813-0.618-1.075-1.072-0.264-0.454-0.395-0.961-0.395-1.52v0c0-0.853 0.294-1.566 0.88-2.141 0.587-0.573 1.313-0.859 2.177-0.859 0.864 0 1.59 0.286 2.177 0.859 0.587 0.574 0.881 1.287 0.88 2.141v0c0 0.554-0.131 1.061-0.393 1.52-0.264 0.46-0.623 0.817-1.077 1.072zM295.731 242.763c-0.397-0.41-0.883-0.615-1.459-0.614-0.576 0-1.062 0.205-1.457 0.614-0.397 0.41-0.595 0.907-0.595 1.491 0 0.585 0.198 1.082 0.595 1.492 0.395 0.41 0.881 0.615 1.457 0.615 0.576 0 1.062-0.205 1.459-0.615 0.395-0.41 0.593-0.907 0.593-1.492 0-0.584-0.198-1.081-0.593-1.491zM303.212 246.843h0.805v0.357h-1.794l-1.388-1.952h-1.287v1.952h-1.787v-0.357h0.806v-5.45h2.16c0.886 0 1.52 0.15 1.903 0.448 0.382 0.299 0.573 0.778 0.573 1.438v0c0 0.958-0.418 1.562-1.254 1.811v0zM300.769 244.359c0.554 0 0.931-0.086 1.13-0.258 0.199-0.172 0.299-0.448 0.299-0.827 0-0.379-0.102-0.639-0.307-0.781-0.205-0.141-0.57-0.211-1.097-0.211v0h-1.246v2.077zM306.809 246.843h2.019v0.357h-5.018v-0.357h2.019v-4.553h-1.762v-0.897h4.503v0.897h-1.761zM308.828 246.843h2.276v0.357h-2.276zM314.103 246.843h2.019v0.357h-5.018v-0.357h2.019v-4.553h-1.761v-0.897h4.503v0.897h-1.762zM316.122 246.843h0.806v-5.45h0.981v5.45h0.805v0.357h-2.592zM326.075 246.843h0.806v0.357h-1.786v-4.536l-2.027 4.029h-0.548l-2.019-4.029v4.536h-1.787v-0.357h0.806v-5.45h1.529l1.753 3.647 1.753-3.647h1.52zM326.881 246.843h0.806v-5.45h4.079v0.922h-3.098v1.537h2.783v0.872h-2.783v1.554h3.198v0.565h0.806v0.357h-5.791z" fill="#eefc03" fill-rule="nonzero" stroke="none" stroke-width="1" stroke-linecap="butt" stroke-linejoin="miter" stroke-miterlimit="10" stroke-dasharray="" stroke-dashoffset="0" font-family="none" font-weight="none" font-size="none" text-anchor="none" style="mix-blend-mode: normal" data-fill-palette-color="secondary"></path></g></g><g transform="matrix(1,0,0,1,29.331764404296877,80.50799858552357)"><svg viewBox="0 0 316.416 88.34356093442162" height="88.34356093442162" width="316.416"><g><svg viewBox="0 0 316.416 88.34356093442162" height="88.34356093442162" width="316.416"><g><svg viewBox="0 0 316.416 88.34356093442162" height="88.34356093442162" width="316.416"><g><svg viewBox="0 0 316.416 88.34356093442162" height="88.34356093442162" width="316.416"><g><svg viewBox="0 0 316.416 88.34356093442162" height="88.34356093442162" width="316.416"><g><svg viewBox="0 0 316.416 88.34356093442162" height="88.34356093442162" width="316.416"><g transform="matrix(1,0,0,1,0,0)"><svg width="316.416" viewBox="4.050000190734863 -35.900001525878906 179.62998962402344 49.60000228881836" height="88.34356093442162" data-palette-color="#fe032f"><g class="undefined-text-0" data-fill-palette-color="primary" id="text-0"><path d="M7.5-24.65Q7.3-26.45 8.03-27.93 8.75-29.4 10.1-30.8L10.1-30.8 13.15-31.05Q13.85-31.15 14-31.15L14-31.15Q14.75-31.15 15.9-29.3L15.9-29.3Q16-29 16.1-28.58 16.2-28.15 16.4-27.9L16.4-27.9 22.2-19.85Q23.5-18.2 24.75-16.4L24.75-16.4 25.6-19.15Q27.2-24.4 28.53-27.68 29.85-30.95 32-33.9L32-33.9 34.4-33.55Q35.35-32.8 35.05-31.55L35.05-31.55Q34.6-29.75 34.1-28.85L34.1-28.85Q32.9-25.8 32.1-22.68 31.3-19.55 30.3-14.8L30.3-14.8Q30.15-14.15 29.9-12.85L29.9-12.85Q29.5-10.85 28.35-9.88 27.2-8.9 25.2-8.8L25.2-8.8Q23.2-8.7 21.75-10.45L21.75-10.45Q20.25-12.25 18-15.3L18-15.3 17-16.65Q15.65-18.45 12.9-21.95L12.9-21.95 12.45-19.8Q11.7-16.2 11.55-14.15L11.55-14.15 11.25-8.1Q11.2-7.1 11.15-5.58 11.1-4.05 10.95-2L10.95-2Q10.9-0.5 9.93 0.6 8.95 1.7 7.5 2.1L7.5 2.1Q6.75 2.3 5.68 1.73 4.6 1.15 4.4 0.4L4.4 0.4Q4.05-0.9 4.05-1.9L4.05-1.9Q4.05-2.8 4.3-3.5L4.3-3.5Q4.75-4.7 4.9-7.3L4.9-7.3Q5-8.9 5.15-9.7L5.15-9.7Q5.8-14.3 7.15-22.4L7.15-22.4Q7.2-22.8 7.38-23.48 7.55-24.15 7.5-24.65L7.5-24.65ZM49.2-3.35Q47.65-2.4 45.65-2.4L45.65-2.4Q43.45-2.4 41.42-3.53 39.4-4.65 38.2-6.75 37-8.85 37.2-11.55L37.2-11.55 37.45-12.75Q37.75-14.55 37.95-15.4L37.95-15.4Q38.4-17.25 39.75-18 41.1-18.75 43.35-19.2L43.35-19.2Q44.8-19.5 46.2-19.5L46.2-19.5Q50.6-19.5 53.6-16.55L53.6-16.55Q55.2-14.95 55.2-12.65L55.2-12.65Q55.2-10.4 53.55-7.8L53.55-7.8Q51.65-4.85 49.2-3.35L49.2-3.35ZM45-16.95Q44.2-15 43.3-12.1L43.3-12.1 42.8-10.6 43.15-10.45Q43.15-10.1 43.17-9.38 43.2-8.65 43.35-8.15L43.35-8.15Q43.9-6.6 44.6-6.25L44.6-6.25Q44.9-6.1 45.47-6.4 46.05-6.7 46.5-7.1L46.5-7.1Q47.2-7.7 48.75-9.6L48.75-9.6Q49.9-10.9 49.9-12.7L49.9-12.7Q49.9-14.25 49.02-15.5 48.15-16.75 46.6-17.2L46.6-17.2Q46.45-17.25 46.05-17.25L46.05-17.25Q45.1-17.25 45-16.95L45-16.95ZM67.09-18.85Q67.09-18.55 67-18.07 66.9-17.6 66.95-17.45L66.95-17.45Q70.4-18.2 72.8-18.2L72.8-18.2Q76.55-18.2 78.45-14.6L78.45-14.6Q80-11.55 80-7.85L80-7.85Q80-6.9 79.8-5.1L79.8-5.1Q79.65-3.9 78.84-3.18 78.05-2.45 76.95-2.45L76.95-2.45Q75.8-2.45 75.32-2.88 74.84-3.3 74.77-3.85 74.7-4.4 74.7-5.6L74.7-5.6 74.65-6.65Q74.55-9.65 74.25-11.85L74.25-11.85Q74.09-12.75 73.57-13.13 73.05-13.5 72.2-13.5L72.2-13.5Q71.4-13.5 70.3-13.25L70.3-13.25Q68.59-12.8 68.02-12.55 67.45-12.3 66.34-11.5L66.34-11.5Q66-11.25 65.84-10.5 65.7-9.75 65.7-9.65L65.7-9.65Q65.05-6.45 64.3-2L64.3-2Q64.25-1.8 64.09-1.05 63.95-0.3 63.52 0.03 63.1 0.35 62.3 0.25L62.3 0.25Q59.15-0.15 59.1-2.4L59.1-2.4Q59.05-5.3 59.55-9.25L59.55-9.25Q59.9-12.1 60.2-13.85L60.2-13.85Q60.3-14.65 60.47-15.8 60.65-16.95 60.8-18.45L60.8-18.45Q60.95-19.6 61.1-20.15 61.25-20.7 61.8-21.08 62.35-21.45 63.5-21.45L63.5-21.45Q64.95-21.45 65.9-20.8 66.84-20.15 67.09-18.95L67.09-18.95 67.09-18.85ZM84.14-18.65Q83.79-19.05 83.67-19.5 83.54-19.95 83.44-20.75L83.44-20.75Q83.89-21.8 85.09-21.8L85.09-21.8Q85.69-21.7 85.94-21.7L85.94-21.7Q86.94-21.7 87.19-22.3 87.44-22.9 87.44-23.7 87.44-24.5 87.44-24.95L87.44-24.95 87.59-27.95Q87.64-28.95 87.72-30.43 87.79-31.9 87.89-33.85L87.89-33.85Q87.94-34.9 88.42-35.4 88.89-35.9 89.74-35.9L89.74-35.9Q90.34-35.9 90.69-35.8L90.69-35.8Q92.74-35.35 93.44-34.5 94.14-33.65 94.39-31.95L94.39-31.95Q94.44-31.6 94.29-30.5L94.29-30.5 93.39-22.7Q93.34-22.4 93.24-21.98 93.14-21.55 93.14-21.35L93.14-21.35Q93.14-20.9 93.64-20.75 94.14-20.6 95.49-20.65L95.49-20.65Q97.79-21.15 98.99-21.3L98.99-21.3Q99.24-21.35 99.79-21.35L99.79-21.35Q100.39-21.35 100.59-21.2L100.59-21.2Q100.79-21.1 100.92-20.63 101.04-20.15 101.04-19.55L101.04-19.55Q101.04-19 100.92-18.55 100.79-18.1 100.59-18.05L100.59-18.05Q99.24-17.65 97.39-17.4L97.39-17.4Q95.19-17 94.14-16.7L94.14-16.7Q93.59-16.55 93.04-15.95 92.49-15.35 92.44-14.85L92.44-14.85Q92.34-12.4 92.29-9.85L92.29-9.85Q92.24-7.9 92.44-5.95L92.44-5.95Q92.59-4.3 93.09-3.58 93.59-2.85 94.59-2.85L94.59-2.85Q95.39-2.85 96.89-3.4L96.89-3.4Q97.69-3.75 98.29-3.75L98.29-3.75Q99.24-3.75 99.64-2.7L99.64-2.7Q99.79-2.35 99.79-2L99.79-2Q99.79-1.35 99.32-0.95 98.84-0.55 98.04-0.25L98.04-0.25Q96.54 0.3 94.99 0.35L94.99 0.35Q92.89 0.35 91.04-0.68 89.19-1.7 88.12-3.55 87.04-5.4 87.19-7.8L87.19-7.8Q87.24-8.75 87.24-10.8L87.24-10.8Q87.24-14.05 86.99-17.4L86.99-17.4Q86.94-17.7 86.64-17.82 86.34-17.95 85.64-18.1L85.64-18.1Q84.49-18.3 84.14-18.65L84.14-18.65ZM115.89-3.35Q114.34-2.4 112.34-2.4L112.34-2.4Q110.14-2.4 108.12-3.53 106.09-4.65 104.89-6.75 103.69-8.85 103.89-11.55L103.89-11.55 104.14-12.75Q104.44-14.55 104.64-15.4L104.64-15.4Q105.09-17.25 106.44-18 107.79-18.75 110.04-19.2L110.04-19.2Q111.49-19.5 112.89-19.5L112.89-19.5Q117.29-19.5 120.29-16.55L120.29-16.55Q121.89-14.95 121.89-12.65L121.89-12.65Q121.89-10.4 120.24-7.8L120.24-7.8Q118.34-4.85 115.89-3.35L115.89-3.35ZM111.69-16.95Q110.89-15 109.99-12.1L109.99-12.1 109.49-10.6 109.84-10.45Q109.84-10.1 109.87-9.38 109.89-8.65 110.04-8.15L110.04-8.15Q110.59-6.6 111.29-6.25L111.29-6.25Q111.59-6.1 112.17-6.4 112.74-6.7 113.19-7.1L113.19-7.1Q113.89-7.7 115.44-9.6L115.44-9.6Q116.59-10.9 116.59-12.7L116.59-12.7Q116.59-14.25 115.72-15.5 114.84-16.75 113.29-17.2L113.29-17.2Q113.14-17.25 112.74-17.25L112.74-17.25Q111.79-17.25 111.69-16.95L111.69-16.95ZM133.79-18.85Q133.79-18.55 133.69-18.07 133.59-17.6 133.64-17.45L133.64-17.45Q137.09-18.2 139.49-18.2L139.49-18.2Q143.24-18.2 145.14-14.6L145.14-14.6Q146.69-11.55 146.69-7.85L146.69-7.85Q146.69-6.9 146.49-5.1L146.49-5.1Q146.34-3.9 145.54-3.18 144.74-2.45 143.64-2.45L143.64-2.45Q142.49-2.45 142.01-2.88 141.54-3.3 141.46-3.85 141.39-4.4 141.39-5.6L141.39-5.6 141.34-6.65Q141.24-9.65 140.94-11.85L140.94-11.85Q140.79-12.75 140.26-13.13 139.74-13.5 138.89-13.5L138.89-13.5Q138.09-13.5 136.99-13.25L136.99-13.25Q135.29-12.8 134.71-12.55 134.14-12.3 133.04-11.5L133.04-11.5Q132.69-11.25 132.54-10.5 132.39-9.75 132.39-9.65L132.39-9.65Q131.74-6.45 130.99-2L130.99-2Q130.94-1.8 130.79-1.05 130.64-0.3 130.21 0.03 129.79 0.35 128.99 0.25L128.99 0.25Q125.84-0.15 125.79-2.4L125.79-2.4Q125.74-5.3 126.24-9.25L126.24-9.25Q126.59-12.1 126.89-13.85L126.89-13.85Q126.99-14.65 127.16-15.8 127.34-16.95 127.49-18.45L127.49-18.45Q127.64-19.6 127.79-20.15 127.94-20.7 128.49-21.08 129.04-21.45 130.19-21.45L130.19-21.45Q131.64-21.45 132.59-20.8 133.54-20.15 133.79-18.95L133.79-18.95 133.79-18.85ZM151.64-33.95Q151.59-33.9 151.19-33.63 150.79-33.35 150.74-32.95L150.74-32.95Q150.29-28.9 149.94-23.8L149.94-23.8Q149.89-23.55 150.31-23.13 150.74-22.7 150.89-22.75L150.89-22.75Q151.09-22.85 151.69-23.15 152.29-23.45 152.66-23.75 153.04-24.05 153.19-24.4L153.19-24.4Q153.79-25.8 154.31-27.6 154.84-29.4 155.29-31.1L155.29-31.1Q155.34-31.3 155.34-31.7L155.34-31.7Q155.34-32.75 154.61-33.43 153.89-34.1 152.69-34.1L152.69-34.1Q152.19-34.1 151.64-33.95L151.64-33.95ZM163.18-11.4Q162.08-10.4 162.08-9.4L162.08-9.4Q162.08-8.6 162.93-7.15L162.93-7.15Q163.43-7.05 163.68-7.05L163.68-7.05Q164.88-7.05 165.78-7.8 166.68-8.55 167.83-9.95L167.83-9.95Q167.78-9.9 168.63-10.9L168.63-10.9Q169.03-11.3 169.68-12.55L169.68-12.55Q170.33-13.85 171.01-14.48 171.68-15.1 173.13-15.1L173.13-15.1Q174.38-15.1 175.18-14.3 175.98-13.5 175.98-12.1L175.98-12.1Q175.98-8.9 175.58-2.3L175.58-2.3Q175.53-1.35 175.81-0.88 176.08-0.4 176.93-0.4L176.93-0.4Q179.43-0.4 181.03-0.7L181.03-0.7Q181.73-0.85 182.13-0.85L182.13-0.85Q183.03-0.85 183.36-0.23 183.68 0.4 183.68 1.95L183.68 1.95 182.38 2.1Q181.78 2.15 180.28 2.35 178.78 2.55 177.53 2.65L177.53 2.65Q176.28 2.75 175.68 3.28 175.08 3.8 175.08 5.05L175.08 5.05Q175.08 6.7 174.83 8.8L174.83 8.8 174.63 11.5Q174.58 12.6 174.16 13.13 173.73 13.65 172.63 13.7L172.63 13.7Q170.18 13.7 170.03 11.55L170.03 11.55Q169.93 10.15 169.93 9.35L169.93 9.35Q169.93 9 169.96 8.45 169.98 7.9 169.93 7.15L169.93 7.15Q169.83 5.45 168.98 5.45L168.98 5.45Q168.58 5.45 167.83 5.9L167.83 5.9Q167.48 6.15 166.78 6.55L166.78 6.55Q165.83 7.05 165.28 7.45L165.28 7.45Q164.63 7.95 163.63 7.95L163.63 7.95Q162.48 7.95 161.28 7.3 160.08 6.65 159.28 5.55L159.28 5.55Q162.08 2.5 167.43 1.15L167.43 1.15Q169.03 0.8 169.61-0.05 170.18-0.9 170.08-2.45L170.08-2.45Q169.88-4.6 169.63-4.45L169.63-4.45Q168.23-3.5 166.13-3.5L166.13-3.5Q164.08-3.5 161.53-4.35L161.53-4.35Q159.98-4.8 158.81-6.75 157.63-8.7 157.63-10.55L157.63-10.55Q157.63-10.9 157.73-11.4L157.73-11.4Q158.18-13.4 159.78-15.23 161.38-17.05 163.46-18.23 165.53-19.4 167.33-19.65L167.33-19.65Q168.98-19.95 170.58-19.95L170.58-19.95Q172.58-19.95 174.18-19.4L174.18-19.4Q175.03-19.15 175.83-18.63 176.63-18.1 177.36-17.53 178.08-16.95 178.38-16.7L178.38-16.7Q178.53-16.65 178.53-16.1L178.53-16.1Q178.53-15.55 178.33-15.35L178.33-15.35Q178.03-15.1 177.61-14.93 177.18-14.75 176.78-14.75L176.78-14.75Q175.58-14.75 174.18-15.55L174.18-15.55Q173.03-16.35 171.58-16.35L171.58-16.35Q170.03-16.35 167.73-15.1L167.73-15.1Q166.93-14.7 165.93-13.85 164.93-13 164.08-12.2L164.08-12.2 163.18-11.4Z" fill="#fe032f" data-fill-palette-color="primary"></path></g></svg></g></svg></g></svg></g></svg></g></svg></g></svg></g></svg></g></svg></g><defs></defs></svg><rect width="375.07952880859375" height="249.35955810546875" fill="none" stroke="none" visibility="hidden"></rect></g></svg></g></svg>